<svg width="512" height="512" xmlns="http://www.w3.org/2000/svg" version="1.0" preserveAspectRatio="xMidYMid meet">
 <g>
  <title>Layer 1</title>
  <g transform="translate(0 512) scale(0.1 -0.1)" fill="white" id="svg_1">
   <path fill="#010a4f" d="m2420,5114c-322,-40 -591,-171 -815,-398c-159,-160 -259,-320 -324,-520c-65,-199 -64,-181 -68,-868l-4,-628l-90,0c-111,0 -158,-20 -189,-80c-20,-39 -20,-56 -20,-1270c0,-1214 0,-1231 20,-1270c13,-26 34,-47 60,-60c39,-20 56,-20 1570,-20c1514,0 1531,0 1570,20c26,13 47,34 60,60c20,39 20,56 20,1270c0,1214 0,1231 -20,1270c-31,60 -78,80 -189,80l-90,0l-4,628c-3,547 -6,637 -21,702c-42,185 -112,351 -211,500c-63,95 -258,291 -351,352c-161,107 -335,180 -506,213c-81,16 -328,28 -398,19zm380,-322c198,-52 365,-146 501,-281c134,-135 224,-294 282,-501c20,-72 21,-100 25,-692l3,-618l-150,0l-151,0l0,570c0,483 -2,583 -16,648c-61,295 -291,525 -586,586c-401,83 -799,-181 -882,-586c-14,-65 -16,-167 -16,-648l0,-570l-150,0l-150,0l0,569c0,349 4,600 11,648c33,242 175,499 364,655c141,117 344,211 515,237c98,15 311,6 400,-17zm-148,-583c172,-37 310,-175 347,-347c7,-36 11,-232 11,-607l0,-555l-450,0l-450,0l0,555c0,369 4,572 11,607c18,87 58,158 123,223c111,111 258,156 408,124zm1258,-1959l0,-150l-90,0c-112,0 -159,-20 -190,-80c-25,-50 -25,-90 0,-140c31,-60 78,-80 190,-80l90,0l0,-150l0,-150l-90,0c-112,0 -159,-20 -190,-80c-25,-50 -25,-90 0,-140c31,-60 78,-80 190,-80l90,0l0,-150l0,-150l-90,0c-112,0 -159,-20 -190,-80c-25,-50 -25,-90 0,-140c31,-60 78,-80 190,-80l90,0l0,-150l0,-150l-1350,0l-1350,0l0,150l0,150l90,0c112,0 159,20 190,80c25,50 25,90 0,140c-31,60 -78,80 -190,80l-90,0l0,150l0,150l90,0c112,0 159,20 190,80c25,50 25,90 0,140c-31,60 -78,80 -190,80l-90,0l0,150l0,150l90,0c71,0 99,4 130,20c45,23 80,80 80,130c0,50 -35,107 -80,130c-31,16 -59,20 -130,20l-90,0l0,150l0,150l1350,0l1350,0l0,-150z" id="svg_2"/>
   <path fill="#010a4f" d="m2488,2099c-44,-23 -78,-81 -78,-134c0,-25 -5,-37 -17,-42c-58,-19 -132,-58 -170,-89c-159,-130 -175,-353 -35,-492c63,-64 146,-98 332,-137c152,-32 210,-53 210,-75c0,-20 -47,-51 -99,-67c-71,-20 -143,-13 -211,23c-88,46 -160,34 -213,-38c-28,-37 -32,-105 -10,-148c21,-40 93,-92 164,-117c45,-16 49,-20 49,-51c0,-78 73,-152 150,-152c78,0 150,74 150,155c0,25 5,37 18,42c57,19 131,58 169,89c159,130 175,353 35,492c-63,64 -146,98 -332,137c-152,32 -210,53 -210,75c0,20 47,51 99,67c67,19 148,13 196,-16c53,-31 100,-41 143,-29c104,28 145,156 76,237c-24,29 -153,101 -180,101c-9,0 -14,12 -14,35c0,54 -34,111 -80,135c-49,25 -94,25 -142,-1z" id="svg_3"/>
  </g>
 </g>

</svg>