<?xml version="1.0" standalone="no"?>
<!DOCTYPE svg PUBLIC "-//W3C//DTD SVG 20010904//EN"
 "http://www.w3.org/TR/2001/REC-SVG-20010904/DTD/svg10.dtd">
<svg version="1.0" xmlns="http://www.w3.org/2000/svg"
 width="512.000000pt" height="512.000000pt" viewBox="0 0 512.000000 512.000000"
 preserveAspectRatio="xMidYMid meet">

<g transform="translate(0.000000,512.000000) scale(0.100000,-0.100000)"
fill="#000000" stroke="none">
<path d="M2420 5114 c-322 -40 -591 -171 -815 -398 -159 -160 -259 -320 -324
-520 -65 -199 -64 -181 -68 -868 l-4 -628 -90 0 c-111 0 -158 -20 -189 -80
-20 -39 -20 -56 -20 -1270 0 -1214 0 -1231 20 -1270 13 -26 34 -47 60 -60 39
-20 56 -20 1570 -20 1514 0 1531 0 1570 20 26 13 47 34 60 60 20 39 20 56 20
1270 0 1214 0 1231 -20 1270 -31 60 -78 80 -189 80 l-90 0 -4 628 c-3 547 -6
637 -21 702 -42 185 -112 351 -211 500 -63 95 -258 291 -351 352 -161 107
-335 180 -506 213 -81 16 -328 28 -398 19z m380 -322 c198 -52 365 -146 501
-281 134 -135 224 -294 282 -501 20 -72 21 -100 25 -692 l3 -618 -150 0 -151
0 0 570 c0 483 -2 583 -16 648 -61 295 -291 525 -586 586 -401 83 -799 -181
-882 -586 -14 -65 -16 -167 -16 -648 l0 -570 -150 0 -150 0 0 569 c0 349 4
600 11 648 33 242 175 499 364 655 141 117 344 211 515 237 98 15 311 6 400
-17z m-148 -583 c172 -37 310 -175 347 -347 7 -36 11 -232 11 -607 l0 -555
-450 0 -450 0 0 555 c0 369 4 572 11 607 18 87 58 158 123 223 111 111 258
156 408 124z m1258 -1959 l0 -150 -90 0 c-112 0 -159 -20 -190 -80 -25 -50
-25 -90 0 -140 31 -60 78 -80 190 -80 l90 0 0 -150 0 -150 -90 0 c-112 0 -159
-20 -190 -80 -25 -50 -25 -90 0 -140 31 -60 78 -80 190 -80 l90 0 0 -150 0
-150 -90 0 c-112 0 -159 -20 -190 -80 -25 -50 -25 -90 0 -140 31 -60 78 -80
190 -80 l90 0 0 -150 0 -150 -1350 0 -1350 0 0 150 0 150 90 0 c112 0 159 20
190 80 25 50 25 90 0 140 -31 60 -78 80 -190 80 l-90 0 0 150 0 150 90 0 c112
0 159 20 190 80 25 50 25 90 0 140 -31 60 -78 80 -190 80 l-90 0 0 150 0 150
90 0 c71 0 99 4 130 20 45 23 80 80 80 130 0 50 -35 107 -80 130 -31 16 -59
20 -130 20 l-90 0 0 150 0 150 1350 0 1350 0 0 -150z"/>
<path d="M2488 2099 c-44 -23 -78 -81 -78 -134 0 -25 -5 -37 -17 -42 -58 -19
-132 -58 -170 -89 -159 -130 -175 -353 -35 -492 63 -64 146 -98 332 -137 152
-32 210 -53 210 -75 0 -20 -47 -51 -99 -67 -71 -20 -143 -13 -211 23 -88 46
-160 34 -213 -38 -28 -37 -32 -105 -10 -148 21 -40 93 -92 164 -117 45 -16 49
-20 49 -51 0 -78 73 -152 150 -152 78 0 150 74 150 155 0 25 5 37 18 42 57 19
131 58 169 89 159 130 175 353 35 492 -63 64 -146 98 -332 137 -152 32 -210
53 -210 75 0 20 47 51 99 67 67 19 148 13 196 -16 53 -31 100 -41 143 -29 104
28 145 156 76 237 -24 29 -153 101 -180 101 -9 0 -14 12 -14 35 0 54 -34 111
-80 135 -49 25 -94 25 -142 -1z"/>
</g>
</svg>
